# xmcd
#
# Track frame offsets:
# 150
# 11227
# 26614
# 37880
# 51809
# 65536
# 77562
# 91127
# 104083
# 117446
# 138061
# 153333
# 165883
# 176573
#
# Disc length: 2519 seconds
#
#
# Revision: 1
# Processed by: cddbd v1.5.2PL0 Copyright (c) Steve Scherf et al.
# Submitted via: FreeRIP 2.951 
#
DISCID=a709d50e
DTITLE=Lasse Stefanz - SvängJul
DYEAR=2008
DGENRE=Julmusik
TTITLE0=Tänk va' Tomten likna Pappa
TTITLE1=Ett litet rött paket
TTITLE2=Vackra juletid
TTITLE3=Tomterock
TTITLE4=Mary's boy child
TTITLE5=Run Rudolph run
TTITLE6=Vitare än snö
TTITLE7=With bells on
TTITLE8=Louisiana christmas day
TTITLE9=Ljusen i advent
TTITLE10=Such a night
TTITLE11=Om jag får det jag önskat
TTITLE12=Mjuka paket
TTITLE13=Jingle my bells
EXTD=
EXTT0=
EXTT1=
EXTT2=
EXTT3=
EXTT4=
EXTT5=
EXTT6=
EXTT7=
EXTT8=
EXTT9=
EXTT10=
EXTT11=
EXTT12=
EXTT13=
PLAYORDER=
